<?xml version="1.0" encoding="UTF-8" standalone="no" ?>
<!DOCTYPE svg PUBLIC "-//W3C//DTD SVG 1.1//EN" "http://www.w3.org/Graphics/SVG/1.1/DTD/svg11.dtd">
<svg xmlns="http://www.w3.org/2000/svg" xmlns:xlink="http://www.w3.org/1999/xlink" version="1.1" width="1280" height="1024" viewBox="0 0 1280 1024" xml:space="preserve">
<desc>Created with Fabric.js 4.4.0</desc>
<defs>
</defs>
<g transform="matrix(1 0 0 1 640 512)" id="background-logo"  >
<rect style="stroke: none; stroke-width: 0; stroke-dasharray: none; stroke-linecap: butt; stroke-dashoffset: 0; stroke-linejoin: miter; stroke-miterlimit: 4; fill: rgb(255,255,255); fill-opacity: 0; fill-rule: nonzero; opacity: 1;"  paint-order="stroke"  x="-640" y="-512" rx="0" ry="0" width="1280" height="1024" />
</g>
<g transform="matrix(1.9211538461538458 0 0 1.9211538461538458 677.0177725931516 381.95603594386614)" id="logo-logo"  >
<g style=""  paint-order="stroke"   >
		<g transform="matrix(0.3623352005348833 0 0 0.3623352005348833 -58.62296731121296 -116.16070889907866)"  >
<polygon style="stroke: none; stroke-width: 1; stroke-dasharray: none; stroke-linecap: butt; stroke-dashoffset: 0; stroke-linejoin: miter; stroke-miterlimit: 4; fill: rgb(42,156,245); fill-rule: nonzero; opacity: 1;"  paint-order="stroke"  points="45.9718628,-36.89909365 -27.8263245,-36.89909365 -45.9718628,36.89909365 27.826293899999996,36.89909365 " />
</g>
		<g transform="matrix(0.3623352005348833 0 0 0.3623352005348833 -102.87228014071732 -116.16070889907866)"  >
<polygon style="stroke: none; stroke-width: 1; stroke-dasharray: none; stroke-linecap: butt; stroke-dashoffset: 0; stroke-linejoin: miter; stroke-miterlimit: 4; fill: rgb(42,156,245); fill-rule: nonzero; opacity: 1;"  paint-order="stroke"  points="45.971862750000014,-36.89909365 -27.82630925000001,-36.89909365 -45.971862750000014,36.89909365 27.826324449999987,36.89909365 " />
</g>
		<g transform="matrix(0.3623352005348833 0 0 0.3623352005348833 -57.219404952847526 2.4767183128994645)"  >
<polygon style="stroke: none; stroke-width: 1; stroke-dasharray: none; stroke-linecap: butt; stroke-dashoffset: 0; stroke-linejoin: miter; stroke-miterlimit: 4; fill: rgb(42,156,245); fill-rule: nonzero; opacity: 1;"  paint-order="stroke"  points="45.9718628,-36.89907840000001 -27.82629400000002,-36.89907840000001 -45.9718628,36.89907840000001 27.826324400000033,36.89907840000001 " />
</g>
		<g transform="matrix(0.3623352005348833 0 0 0.3623352005348833 0 0)"  >
<path style="stroke: none; stroke-width: 1; stroke-dasharray: none; stroke-linecap: butt; stroke-dashoffset: 0; stroke-linejoin: miter; stroke-miterlimit: 4; fill: rgb(42,156,245); fill-rule: nonzero; opacity: 1;"  paint-order="stroke"  transform=" translate(-500.0000006039072, -499.9999848)" d="M 793.5178833 142.5118103 L 432.5041504 142.5118103 L 414.3586121 216.3099976 L 775.3723145 216.3099976 C 782.5675049 216.3099976 786.9829102 222.1650696 785.2137452000001 229.3602448 L 759.2971803 334.7633973 C 757.5280153 341.95855720000003 750.2332765 347.8136598 743.0380861 347.8136598 L 623.3828735 347.8136598 L 627.2684326 332.01116959999996 C 639.0433349 284.12258929999996 609.6629028 245.16273519999996 561.774353 245.16273519999996 L 163.0191345 245.16273519999996 L 140.9880523 334.7633974 C 129.2131805 382.6519777 158.5935668 421.6118166 206.4811553 421.6118166 L 531.4391631000001 421.6118166 L 445.6194610000001 770.6417238 C 443.8502960000001 777.8368532000001 436.5560455000001 783.6900026000001 429.36088560000013 783.6900026000001 L 323.9577026 783.6900026000001 C 316.7615661 783.6900026000001 312.3466491 777.8368532000001 314.1157837 770.6417238 L 358.02584840000003 592.0588991 L 284.22769170000004 592.0588991 L 240.31761170000004 770.6417237999999 C 228.54321290000004 818.5283205 257.92358400000006 857.4881592999999 305.81216430000006 857.4881592999999 L 411.215332 857.4881592999999 C 459.1038818 857.4881592999999 507.643219 818.5283203999999 519.4176024999999 770.6417237999999 L 605.2373656999999 421.6118165999999 L 724.8925780999999 421.6118165999999 C 772.7811278999999 421.6118165999999 821.3204344999999 382.65197769999986 833.0953368999999 334.7633973999999 L 859.0119628999998 229.3602448999999 C 870.7868042 181.4716797 841.4064331 142.5118103 793.5178833 142.5118103 z M 224.626709 347.8136597 C 217.4315491 347.8136597 213.0170899 341.95855720000003 214.78623960000002 334.76339720000004 L 218.6717682 318.960907 L 543.6287994 318.960907 C 550.8239898 318.960907 555.2393951 324.815979 553.4702911 332.0111695 L 549.584732 347.8136597 L 224.626709 347.8136597 z" stroke-linecap="round" />
</g>
		<g transform="matrix(0.3623352005348833 0 0 0.3623352005348833 63.09622757961472 -41.772627670275824)"  >
<linearGradient id="SVGID_1_3_3_301441" gradientUnits="userSpaceOnUse" gradientTransform="matrix(1 0 -0.2458807 1 -617.5851555 -384.71273805)"  x1="742.7172852" y1="384.712738" x2="644.8934937" y2="384.712738">
<stop offset="17.04898%" style="stop-color:rgb(42,156,245);stop-opacity: 1"/>
<stop offset="99.63567%" style="stop-color:rgb(37,81,186);stop-opacity: 1"/>
</linearGradient>
<polygon style="stroke: none; stroke-width: 1; stroke-dasharray: none; stroke-linecap: butt; stroke-dashoffset: 0; stroke-linejoin: miter; stroke-miterlimit: 4; fill: url(#SVGID_1_3_3_301441); fill-rule: nonzero; opacity: 1;"  paint-order="stroke"  points="-50.75485230000004,-36.89907834999997 -68.90036009999994,36.899078350000025 50.75485230000004,36.899078350000025 68.90036010000006,-36.89907834999997 " />
</g>
		<g transform="matrix(0.3623352005348833 0 0 0.3623352005348833 -6.998743232994343 -41.772627670275824)"  >
<linearGradient id="SVGID_2_4_4_301442" gradientUnits="userSpaceOnUse" gradientTransform="matrix(-1 0 -0.2458807 1 682.5826263499999 -384.71273805)"  x1="618.527832" y1="384.712738" x2="520.7041016" y2="384.712738">
<stop offset="17.04898%" style="stop-color:rgb(42,156,245);stop-opacity: 1"/>
<stop offset="99.63567%" style="stop-color:rgb(37,81,186);stop-opacity: 1"/>
</linearGradient>
<polygon style="stroke: none; stroke-width: 1; stroke-dasharray: none; stroke-linecap: butt; stroke-dashoffset: 0; stroke-linejoin: miter; stroke-miterlimit: 4; fill: url(#SVGID_2_4_4_301442); fill-rule: nonzero; opacity: 1;"  paint-order="stroke"  points="68.90037534999999,-36.89907834999997 50.75480644999993,36.899078350000025 -68.90037535000005,36.899078350000025 -50.75480655000001,-36.89907834999997 " />
</g>
</g>
</g>
<g transform="matrix(1.9211538461538462 0 0 1.9211538461538462 637.6581134615387 742.6996775770161)" id="text-logo-path-group"  >
<g style=""  paint-order="stroke"   >
		<g transform="matrix(1 0 0 1 0 0)" id="text-logo-path-0"  >
<path style="stroke: none; stroke-width: 0; stroke-dasharray: none; stroke-linecap: butt; stroke-dashoffset: 0; stroke-linejoin: miter; stroke-miterlimit: 4; fill: rgb(42,156,245); fill-rule: nonzero; opacity: 1;"  paint-order="stroke"  transform=" translate(-234.105, 18.099999999999998)" d="M 27.72 -27.88 L 27.72 -36.25 L 0.64 -36.25 L 0.64 -27.88 L 9.8 -27.88 L 9.8 0 L 18.6 0 L 18.6 -27.88 Z M 49.82 -11.66 L 56.34 0 L 66.41 0 L 58.83 -13.67 C 62.33 -15.95 64.34 -19.82 64.34 -23.96 C 64.34 -30.79 58.88 -36.25 52.1 -36.25 L 36.73 -36.25 L 36.73 0 L 45.58 0 L 45.58 -11.66 Z M 45.58 -20.03 L 45.58 -27.88 L 52.1 -27.88 C 54.32 -27.88 56.02 -26.18 56.02 -23.96 C 56.02 -21.84 54.22 -20.03 52.1 -20.03 Z M 102.77 -12.19 L 102.77 -36.25 L 93.97 -36.25 L 93.97 -12.19 C 93.97 -9.12 91 -8.06 88.35 -8.06 C 85.91 -8.06 82.79 -9.33 82.79 -12.19 L 82.79 -36.25 L 73.99 -36.25 L 73.99 -12.19 C 73.99 -4.13 80.82 0.74 88.35 0.74 C 95.93 0.74 102.77 -4.29 102.77 -12.19 Z M 111.19 -17.97 C 111.19 -7.63 119.67 0.74 129.9 0.74 C 136.74 0.74 143.21 -3.18 146.39 -9.22 L 138.59 -13.46 C 137 -10.23 133.51 -8.11 129.9 -8.11 C 124.5 -8.11 119.99 -12.61 119.99 -17.97 C 119.99 -23.37 124.55 -27.82 129.9 -27.82 C 133.51 -27.82 136.79 -25.92 138.54 -22.74 L 146.28 -26.87 C 143.05 -32.91 136.74 -36.62 129.9 -36.62 C 119.62 -36.62 111.19 -28.36 111.19 -17.97 Z M 177.13 0 L 188.1 0 L 173.1 -19.77 L 186.35 -36.25 L 175.22 -36.25 L 164.14 -22.63 L 164.14 -36.25 L 155.29 -36.25 L 155.29 0 L 164.14 0 L 164.14 -8.53 L 167.43 -12.67 Z M 212.16 -36.25 L 196.68 -36.25 L 196.68 0 L 212.16 0 C 222.49 0 230.76 -7.63 230.76 -17.97 C 230.76 -28.25 222.49 -36.25 212.16 -36.25 Z M 205.53 -8.32 L 205.53 -27.88 L 212.16 -27.88 C 217.62 -27.88 221.96 -23.48 221.96 -18.07 C 221.96 -12.61 217.51 -8.32 212.16 -8.32 Z M 241.04 -36.25 L 241.04 0 L 249.9 0 L 249.9 -36.25 Z M 273.21 0.74 C 279.95 0.74 286.46 -3.02 286.46 -10.28 C 286.46 -17.44 280.85 -20.41 274.75 -22.26 C 273.11 -22.79 271.89 -23.27 271.09 -23.64 C 269.98 -24.17 269.19 -24.75 269.19 -26.08 C 269.19 -27.61 271.15 -28.2 272.37 -28.2 C 275.23 -28.2 276.66 -26.92 277.88 -24.43 L 285.4 -28.83 C 282.81 -34.19 278.3 -36.94 272.37 -36.94 C 265.9 -36.94 260.39 -32.75 260.39 -26.08 C 260.39 -19.24 265.26 -16.54 271.15 -14.79 C 273 -14.26 274.33 -13.78 275.23 -13.41 C 276.45 -12.93 277.67 -12.3 277.67 -10.81 C 277.67 -8.85 275.02 -7.9 273.43 -7.9 C 269.98 -7.9 267.6 -9.22 266.27 -12.51 L 258.85 -8.16 C 261.24 -2.07 266.86 0.74 273.21 0.74 Z M 309.04 -36.25 L 295.21 -36.25 L 295.21 0 L 304.01 0 L 304.01 -11.66 L 309.04 -11.66 C 315.88 -11.66 321.39 -17.17 321.39 -23.96 C 321.39 -30.74 315.88 -36.25 309.04 -36.25 Z M 304.01 -20.03 L 304.01 -27.88 L 309.04 -27.88 C 311.32 -27.88 312.96 -26.23 312.96 -23.96 C 312.96 -21.73 311.27 -20.03 309.04 -20.03 Z M 349.85 0 L 359.29 0 L 345.98 -36.25 L 336.55 -36.25 L 323.3 0 L 332.73 0 L 335.07 -6.31 L 347.52 -6.31 Z M 338.09 -14.68 L 341.32 -23.43 L 344.45 -14.68 Z M 386.37 -27.88 L 386.37 -36.25 L 359.29 -36.25 L 359.29 -27.88 L 368.46 -27.88 L 368.46 0 L 377.25 0 L 377.25 -27.88 Z M 391.83 -17.97 C 391.83 -7.63 400.31 0.74 410.54 0.74 C 417.38 0.74 423.84 -3.18 427.02 -9.22 L 419.23 -13.46 C 417.64 -10.23 414.14 -8.11 410.54 -8.11 C 405.13 -8.11 400.63 -12.61 400.63 -17.97 C 400.63 -23.37 405.19 -27.82 410.54 -27.82 C 414.14 -27.82 417.43 -25.92 419.18 -22.74 L 426.92 -26.87 C 423.68 -32.91 417.38 -36.62 410.54 -36.62 C 400.26 -36.62 391.83 -28.36 391.83 -17.97 Z M 458.77 -36.25 L 458.77 -22.74 L 444.25 -22.74 L 444.25 -36.25 L 435.4 -36.25 L 435.4 0 L 444.25 0 L 444.25 -14.36 L 458.77 -14.36 L 458.77 0 L 467.57 0 L 467.57 -36.25 Z" stroke-linecap="round" />
</g>
</g>
</g>
</svg>