<svg width="20" height="20" viewBox="0 0 20 20" xmlns="http://www.w3.org/2000/svg">
<path d="M18.3332 6.29183C18.3332 6.84183 17.8832 7.29183 17.3332 7.29183H2.6665C2.1165 7.29183 1.6665 6.84183 1.6665 6.29183V6.2835C1.6665 4.37516 3.20817 2.8335 5.1165 2.8335H14.8748C16.7832 2.8335 18.3332 4.3835 18.3332 6.29183Z" />
<path d="M1.6665 9.54199V13.717C1.6665 15.6253 3.20817 17.167 5.1165 17.167H14.8748C16.7832 17.167 18.3332 15.617 18.3332 13.7087V9.54199C18.3332 8.99199 17.8832 8.54199 17.3332 8.54199H2.6665C2.1165 8.54199 1.6665 8.99199 1.6665 9.54199ZM6.6665 14.3753H4.99984C4.65817 14.3753 4.37484 14.092 4.37484 13.7503C4.37484 13.4087 4.65817 13.1253 4.99984 13.1253H6.6665C7.00817 13.1253 7.2915 13.4087 7.2915 13.7503C7.2915 14.092 7.00817 14.3753 6.6665 14.3753ZM12.0832 14.3753H8.74984C8.40817 14.3753 8.12484 14.092 8.12484 13.7503C8.12484 13.4087 8.40817 13.1253 8.74984 13.1253H12.0832C12.4248 13.1253 12.7082 13.4087 12.7082 13.7503C12.7082 14.092 12.4248 14.3753 12.0832 14.3753Z" />
</svg>
