<svg width="14" height="14" viewBox="0 0 14 14" xmlns="http://www.w3.org/2000/svg">
<path d="M13.6236 6.1607L12.7236 5.10737C12.5569 4.90737 12.4169 4.53404 12.4169 4.26737V3.13404C12.4169 2.42737 11.8369 1.84737 11.1302 1.84737H9.99691C9.73025 1.84737 9.35025 1.70737 9.15025 1.5407L8.09691 0.640703C7.63691 0.24737 6.88358 0.24737 6.42358 0.640703L5.35691 1.5407C5.15691 1.70737 4.78358 1.84737 4.51691 1.84737H3.36358C2.65691 1.84737 2.07691 2.42737 2.07691 3.13404V4.26737C2.07691 4.52737 1.94358 4.9007 1.77691 5.1007L0.876914 6.1607C0.490247 6.62737 0.490247 7.37404 0.876914 7.82737L1.77691 8.88737C1.94358 9.0807 2.07691 9.4607 2.07691 9.7207V10.8607C2.07691 11.5674 2.65691 12.1474 3.36358 12.1474H4.52358C4.78358 12.1474 5.16358 12.2874 5.36358 12.454L6.41691 13.354C6.87691 13.7474 7.63025 13.7474 8.09025 13.354L9.14358 12.454C9.34358 12.2874 9.71691 12.1474 9.98358 12.1474H11.1169C11.8236 12.1474 12.4036 11.5674 12.4036 10.8607V9.72737C12.4036 9.4607 12.5436 9.08737 12.7102 8.88737L13.6102 7.83404C14.0169 7.3807 14.0169 6.62737 13.6236 6.1607ZM6.75025 4.4207C6.75025 4.14737 6.97691 3.9207 7.25025 3.9207C7.52358 3.9207 7.75025 4.14737 7.75025 4.4207V7.6407C7.75025 7.91404 7.52358 8.1407 7.25025 8.1407C6.97691 8.1407 6.75025 7.91404 6.75025 7.6407V4.4207ZM7.25025 10.2474C6.88358 10.2474 6.58358 9.94737 6.58358 9.5807C6.58358 9.21404 6.87691 8.91404 7.25025 8.91404C7.61691 8.91404 7.91691 9.21404 7.91691 9.5807C7.91691 9.94737 7.62358 10.2474 7.25025 10.2474Z" />
</svg>
