<svg width="24" height="24" viewBox="0 0 24 24" xmlns="http://www.w3.org/2000/svg">
<path fill-rule="evenodd" clip-rule="evenodd" d="M5.27002 8.91016C5.27002 5.18594 8.29581 2.16016 12.02 2.16016C15.7342 2.16016 18.77 5.19594 18.77 8.91016V11.8002C18.77 12.015 18.8187 12.3295 18.9108 12.6655C19.0019 12.9975 19.1194 13.2925 19.2265 13.4799L20.3731 15.3843C21.2787 16.8935 20.5548 18.8596 18.8866 19.4119C14.4226 20.903 9.60623 20.9029 5.14236 19.4115L5.13958 19.4106C4.29717 19.1254 3.66541 18.5359 3.38294 17.7731C3.10015 17.0094 3.19635 16.1497 3.65738 15.3835L4.80581 13.4761C4.80607 13.4757 4.80632 13.4753 4.80657 13.4748C4.91608 13.2907 5.03603 12.9968 5.1286 12.6633C5.22145 12.3288 5.27002 12.0148 5.27002 11.8002V8.91016ZM12.02 3.66016C9.12424 3.66016 6.77002 6.01437 6.77002 8.91016V11.8002C6.77002 12.1955 6.6886 12.6515 6.57395 13.0645C6.45923 13.4778 6.29452 13.9082 6.09423 14.2442L6.09255 14.247L4.94266 16.1568C4.94262 16.1569 4.9427 16.1568 4.94266 16.1568C4.69381 16.5705 4.67992 16.956 4.7896 17.2522C4.89953 17.5491 5.16237 17.8343 5.61913 17.9893C9.77448 19.3773 14.2571 19.3771 18.4124 17.9888L18.4146 17.9881C19.1654 17.7399 19.501 16.8469 19.0872 16.1566C19.0871 16.1564 19.0873 16.1567 19.0872 16.1566L17.9303 14.235C17.7382 13.902 17.5773 13.4745 17.4642 13.0623C17.3514 12.6508 17.27 12.1953 17.27 11.8002V8.91016C17.27 6.02437 14.9058 3.66016 12.02 3.66016Z" />
<path fill-rule="evenodd" clip-rule="evenodd" d="M9.47171 2.92677C9.87115 1.90749 10.8629 1.19043 12.02 1.19043C13.1771 1.19043 14.1688 1.90749 14.5683 2.92677C14.6726 3.19285 14.6166 3.49506 14.4239 3.70611C14.2312 3.91716 13.9353 4.00037 13.6609 3.92069C13.3835 3.84015 13.1035 3.77937 12.8197 3.74498L12.817 3.74464C11.9526 3.63659 11.1358 3.70072 10.3794 3.92062C10.1049 4.0004 9.80894 3.91725 9.6162 3.7062C9.42345 3.49515 9.36742 3.19289 9.47171 2.92677Z" />
<path fill-rule="evenodd" clip-rule="evenodd" d="M9.77002 19.0605C9.77002 19.6731 10.0248 20.2447 10.4303 20.6502C10.8359 21.0557 11.4075 21.3105 12.02 21.3105C13.2558 21.3105 14.27 20.2963 14.27 19.0605H15.77C15.77 21.1248 14.0842 22.8105 12.02 22.8105C10.9925 22.8105 10.0442 22.3854 9.36969 21.7109C8.69521 21.0364 8.27002 20.088 8.27002 19.0605H9.77002Z" />
</svg>
