<svg width="20" height="21" viewBox="0 0 20 21" xmlns="http://www.w3.org/2000/svg">
<path d="M19.5 14.5C19.78 14.5 20 14.72 20 15V16C20 17.66 18.66 19 17 19C17 17.35 15.65 16 14 16C12.35 16 11 17.35 11 19H9C9 17.35 7.65 16 6 16C4.35 16 3 17.35 3 19C1.34 19 0 17.66 0 16V14C0 13.45 0.45 13 1 13H10.5C11.88 13 13 11.88 13 10.5V5C13 4.45 13.45 4 14 4H14.84C15.56 4 16.22 4.39 16.58 5.01L17.22 6.13C17.31 6.29 17.19 6.5 17 6.5C15.62 6.5 14.5 7.62 14.5 9V12C14.5 13.38 15.62 14.5 17 14.5H19.5Z" />
<path d="M6 21C7.10457 21 8 20.1046 8 19C8 17.8954 7.10457 17 6 17C4.89543 17 4 17.8954 4 19C4 20.1046 4.89543 21 6 21Z" />
<path d="M14 21C15.1046 21 16 20.1046 16 19C16 17.8954 15.1046 17 14 17C12.8954 17 12 17.8954 12 19C12 20.1046 12.8954 21 14 21Z" />
<path d="M20 11.53V13H17C16.45 13 16 12.55 16 12V9C16 8.45 16.45 8 17 8H18.29L19.74 10.54C19.91 10.84 20 11.18 20 11.53Z" />
<path d="M11.08 0.980469H3.69C1.65 0.980469 0 2.63047 0 4.67047V11.0605C0 11.6105 0.45 12.0605 1 12.0605H10.15C11.17 12.0605 12 11.2305 12 10.2105V1.90047C12 1.39047 11.59 0.980469 11.08 0.980469ZM7.6 8.10047C7.45 8.24047 7.26 8.31047 7.07 8.31047C6.88 8.31047 6.69 8.24047 6.54 8.10047L6.01 7.57047L5.46 8.12047C5.31 8.27047 5.12 8.34047 4.93 8.34047C4.74 8.34047 4.55 8.27047 4.4 8.12047C4.11 7.83047 4.11 7.35047 4.4 7.06047L4.95 6.51047L4.42 5.98047C4.13 5.69047 4.13 5.21047 4.42 4.92047C4.72 4.63047 5.19 4.63047 5.49 4.92047L6.01 5.45047L6.51 4.94047C6.81 4.65047 7.28 4.65047 7.58 4.94047C7.87 5.24047 7.87 5.71047 7.58 6.01047L7.07 6.51047L7.6 7.03047C7.89 7.33047 7.89 7.80047 7.6 8.10047Z" />
</svg>
